<svg width="24" height="25" viewBox="0 0 24 25" fill="none" xmlns="http://www.w3.org/2000/svg">
<path fill-rule="evenodd" clip-rule="evenodd" d="M24 7.19731C24 6.02418 23.2234 5.07321 22.2651 5.07321H2.73486C1.7766 5.07321 1 6.02418 1 7.19731V17.9488C1 19.1222 1.7766 20.0732 2.73486 20.0732H22.2651C23.2234 20.0732 24 19.1222 24 17.9488V7.19731ZM23.08 7.19731C23.08 6.64638 22.7151 6.19978 22.2651 6.19978H2.73486C2.28495 6.19978 1.92 6.64638 1.92 7.19731V17.9488C1.92 18.4998 2.28495 18.9466 2.73486 18.9466H22.2651C22.7151 18.9466 23.08 18.4998 23.08 17.9488V7.19731ZM5.1393 8.75783V8.08419C5.1393 7.77324 5.34536 7.52091 5.5993 7.52091C5.85323 7.52091 6.0593 7.77324 6.0593 8.08419V8.75783H7.25929C7.51322 8.75783 7.71929 9.01016 7.71929 9.32111C7.71929 9.63207 7.51322 9.8844 7.25929 9.8844H6.0593V12.0099H6.31417C7.27337 12.0099 8.05114 12.9621 8.05114 14.1369V14.2616C8.05114 15.4362 7.27337 16.3886 6.31417 16.3886H6.0593V17.0622C6.0593 17.3732 5.85323 17.6255 5.5993 17.6255C5.34536 17.6255 5.1393 17.3732 5.1393 17.0622V16.3886H3.93931C3.68537 16.3886 3.47907 16.1363 3.47907 15.8253C3.47907 15.5144 3.68537 15.262 3.93931 15.262H5.1393V13.1365H4.88442C3.92522 13.1365 3.14745 12.1841 3.14745 11.0095V10.8848C3.14745 9.70995 3.92522 8.75783 4.88442 8.75783H5.1393ZM12.9781 14.8407L11.0691 17.1763C10.8895 17.3962 10.598 17.3962 10.4185 17.176C10.239 16.9562 10.2392 16.5992 10.4187 16.3794L12.6537 13.6449C12.7401 13.5391 12.8572 13.4799 12.9795 13.4802C13.1015 13.4802 13.2186 13.54 13.3048 13.646L15.248 16.0348L16.3478 15.0327C16.5166 14.8789 16.7489 14.8847 16.9122 15.0468L18.089 16.2147H21.4709C21.7249 16.2147 21.9309 16.467 21.9309 16.778C21.9309 17.089 21.7249 17.3413 21.4709 17.3413H17.9261C17.8205 17.3413 17.7184 17.297 17.6365 17.2157L16.6104 16.1978L15.478 17.2298C15.2945 17.397 15.0387 17.3738 14.8772 17.1755L12.9781 14.8407ZM6.0593 13.1365V15.262H6.31417C6.76525 15.262 7.13114 14.814 7.13114 14.2616V14.1369C7.13114 13.5842 6.76525 13.1365 6.31417 13.1365H6.0593ZM5.1393 9.8844H4.88442C4.43334 9.8844 4.06745 10.3324 4.06745 10.8848V11.0095C4.06745 11.5619 4.43334 12.0099 4.88442 12.0099H5.1393V9.8844ZM10.7802 11.4464H21.4709C21.7249 11.4464 21.9309 11.194 21.9309 10.8831C21.9309 10.5721 21.7249 10.3198 21.4709 10.3198H10.7802C10.5262 10.3198 10.3202 10.5721 10.3202 10.8831C10.3202 11.194 10.5262 11.4464 10.7802 11.4464ZM10.7802 8.91158H21.4709C21.7249 8.91158 21.9309 8.65897 21.9309 8.34801C21.9309 8.03706 21.7249 7.78473 21.4709 7.78473H10.7802C10.5262 7.78473 10.3202 8.03706 10.3202 8.34801C10.3202 8.65897 10.5262 8.91158 10.7802 8.91158Z" fill="#6B6B6B"/>
</svg>
