<svg width="24" height="25" viewBox="0 0 24 25" fill="none" xmlns="http://www.w3.org/2000/svg">
<path d="M20.9416 4.10983H3.05828C2.56603 4.10983 2.09388 4.36868 1.74548 4.82957C1.39707 5.29046 1.20088 5.91573 1.19995 6.56814V18.4515C1.20088 19.1039 1.39707 19.7292 1.74548 20.1901C2.09388 20.651 2.56603 20.9098 3.05828 20.9098H20.9416C21.4339 20.9098 21.906 20.651 22.2544 20.1901C22.6028 19.7292 22.799 19.1039 22.8 18.4515V6.56814C22.799 5.91573 22.6028 5.29046 22.2544 4.82957C21.906 4.36868 21.4339 4.10983 20.9416 4.10983ZM3.05828 5.79818H20.9416C21.0182 5.79757 21.0941 5.81703 21.165 5.85545C21.2359 5.89388 21.3004 5.95049 21.3547 6.02205C21.409 6.09361 21.4521 6.1787 21.4815 6.27242C21.5109 6.36614 21.5261 6.46664 21.5261 6.56814V9.04964H2.47383V6.56814C2.47383 6.46664 2.48897 6.36614 2.51839 6.27242C2.5478 6.1787 2.59091 6.09361 2.64522 6.02205C2.69954 5.95049 2.764 5.89388 2.83489 5.85545C2.90577 5.81703 2.98169 5.79757 3.05828 5.79818ZM20.9416 19.2215H3.05828C2.98169 19.2221 2.90577 19.2026 2.83489 19.1642C2.764 19.1258 2.69954 19.0692 2.64522 18.9976C2.59091 18.9261 2.5478 18.841 2.51839 18.7472C2.48897 18.6535 2.47383 18.553 2.47383 18.4515V10.738H21.5261V18.4515C21.5261 18.553 21.5109 18.6535 21.4815 18.7472C21.4521 18.841 21.409 18.9261 21.3547 18.9976C21.3004 19.0692 21.2359 19.1258 21.165 19.1642C21.0941 19.2026 21.0182 19.2221 20.9416 19.2215Z" fill="#6B6B6B"/>
</svg>
