<svg width="24" height="25" viewBox="0 0 24 25" fill="none" xmlns="http://www.w3.org/2000/svg">
<path d="M13.2437 3.29081C12.2352 2.24926 10.5648 2.24926 9.55629 3.2908L4.63046 8.37808C4.34757 8.67025 4.15747 9.03961 4.08411 9.43962C3.48589 12.7019 3.44173 16.0418 3.95349 19.3188L4.13468 20.479C4.19191 20.8454 4.50753 21.1156 4.87843 21.1156H8.32038C8.60385 21.1156 8.83365 20.8858 8.83365 20.6023V13.4165H13.9664V20.6023C13.9664 20.8858 14.1962 21.1156 14.4796 21.1156H17.9215C18.2924 21.1156 18.608 20.8454 18.6653 20.479L18.8465 19.3188C19.3582 16.0418 19.3141 12.7019 18.7158 9.43962C18.6425 9.03961 18.4524 8.67025 18.1695 8.37808L13.2437 3.29081Z" fill="white"/>
</svg>
