<svg width="24" height="24" viewBox="0 0 24 24" fill="none" xmlns="http://www.w3.org/2000/svg">
<path d="M12.0201 20.53C9.69014 20.53 7.36014 20.16 5.15014 19.42C4.31014 19.13 3.67014 18.54 3.39014 17.77C3.10014 17 3.20014 16.15 3.66014 15.39L4.81014 13.48C5.05014 13.08 5.27014 12.28 5.27014 11.8099V8.91993C5.27014 5.19991 8.30014 2.16989 12.0201 2.16989C15.7401 2.16989 18.7701 5.19991 18.7701 8.91993V11.8099C18.7701 12.27 18.9901 13.08 19.2301 13.49L20.3701 15.39C20.8001 16.11 20.8801 16.98 20.5901 17.77C20.3001 18.56 19.6701 19.16 18.8801 19.42C16.6801 20.16 14.3501 20.53 12.0201 20.53ZM12.0201 3.6699C9.13014 3.6699 6.77014 6.01991 6.77014 8.91993V11.8099C6.77014 12.54 6.47014 13.62 6.10014 14.25L4.95014 16.16C4.73014 16.53 4.67014 16.92 4.80014 17.25C4.92014 17.59 5.22014 17.85 5.63014 17.99C9.81014 19.39 14.2401 19.39 18.4201 17.99C18.7801 17.87 19.0601 17.6 19.1901 17.24C19.3201 16.88 19.2901 16.49 19.0901 16.16L17.9401 14.25C17.5601 13.6 17.2701 12.53 17.2701 11.7999V8.91993C17.2701 6.01991 14.9201 3.6699 12.0201 3.6699Z" fill="#6B6B6B"/>
<path d="M13.8804 3.93992C13.8104 3.93992 13.7404 3.92992 13.6704 3.90992C13.3804 3.82992 13.1004 3.76992 12.8304 3.72992C11.9804 3.61992 11.1604 3.67992 10.3904 3.90992C10.1104 3.99992 9.81039 3.90992 9.62039 3.69992C9.43039 3.48992 9.37039 3.18991 9.48039 2.91991C9.89039 1.86991 10.8904 1.1799 12.0304 1.1799C13.1704 1.1799 14.1704 1.85991 14.5804 2.91991C14.6804 3.18991 14.6304 3.48992 14.4404 3.69992C14.2904 3.85992 14.0804 3.93992 13.8804 3.93992Z" fill="#6B6B6B"/>
<path d="M12.0203 22.81C11.0303 22.81 10.0703 22.41 9.37029 21.71C8.67029 21.01 8.27029 20.05 8.27029 19.06H9.77029C9.77029 19.65 10.0103 20.23 10.4303 20.65C10.8503 21.07 11.4303 21.31 12.0203 21.31C13.2603 21.31 14.2703 20.3 14.2703 19.06H15.7703C15.7703 21.13 14.0903 22.81 12.0203 22.81Z" fill="#6B6B6B"/>
</svg>
