<svg width="24" height="26" viewBox="0 0 24 26" fill="none" xmlns="http://www.w3.org/2000/svg">
<path d="M16.9856 22.0754H6.99398C3.34703 22.0754 1.24878 19.9772 1.24878 16.3303V9.33607C1.24878 5.68911 3.34703 3.59087 6.99398 3.59087H16.9856C20.6326 3.59087 22.7308 5.68911 22.7308 9.33607V16.3303C22.7308 19.9772 20.6326 22.0754 16.9856 22.0754ZM6.99398 5.08962C4.13638 5.08962 2.74753 6.47846 2.74753 9.33607V16.3303C2.74753 19.1878 4.13638 20.5767 6.99398 20.5767H16.9856C19.8433 20.5767 21.2322 19.1878 21.2322 16.3303V9.33607C21.2322 6.47846 19.8433 5.08962 16.9856 5.08962H6.99398Z" fill="#6B6B6B"/>
<path d="M11.9896 13.7025C11.1503 13.7025 10.301 13.4427 9.65156 12.9131L6.52417 10.4152C6.20443 10.1554 6.14449 9.68581 6.40428 9.36608C6.66406 9.04635 7.13368 8.9864 7.4534 9.24619L10.5808 11.7441C11.3402 12.3536 12.6291 12.3536 13.3885 11.7441L16.5158 9.24619C16.8356 8.9864 17.3151 9.03636 17.565 9.36608C17.8248 9.68581 17.7748 10.1654 17.4451 10.4152L14.3176 12.9131C13.6782 13.4427 12.8289 13.7025 11.9896 13.7025Z" fill="#6B6B6B"/>
</svg>
