<svg width="20" height="22" viewBox="0 0 20 22" fill="none" xmlns="http://www.w3.org/2000/svg">
<path d="M9.99153 11.2815C7.35207 11.2815 5.20386 9.13329 5.20386 6.49382C5.20386 3.85436 7.35207 1.70615 9.99153 1.70615C12.631 1.70615 14.7792 3.85436 14.7792 6.49382C14.7792 9.13329 12.631 11.2815 9.99153 11.2815ZM9.99153 2.95511C8.04316 2.95511 6.45282 4.54545 6.45282 6.49382C6.45282 8.4422 8.04316 10.0325 9.99153 10.0325C11.9399 10.0325 13.5303 8.4422 13.5303 6.49382C13.5303 4.54545 11.9399 2.95511 9.99153 2.95511Z" fill="#6B6B6B"/>
<path d="M17.1441 19.608C16.8027 19.608 16.5196 19.3249 16.5196 18.9835C16.5196 16.1109 13.5887 13.7795 9.99169 13.7795C6.39469 13.7795 3.4638 16.1109 3.4638 18.9835C3.4638 19.3249 3.1807 19.608 2.83932 19.608C2.49794 19.608 2.21484 19.3249 2.21484 18.9835C2.21484 15.4281 5.7036 12.5305 9.99169 12.5305C14.2798 12.5305 17.7685 15.4281 17.7685 18.9835C17.7685 19.3249 17.4854 19.608 17.1441 19.608Z" fill="#6B6B6B"/>
</svg>
