<svg width="24" height="26" viewBox="0 0 24 26" fill="none" xmlns="http://www.w3.org/2000/svg">
<path d="M14.4878 17.5392H9.49193C9.08227 17.5392 8.74255 17.1995 8.74255 16.7898C8.74255 16.3801 9.08227 16.0404 9.49193 16.0404H14.4878C14.8974 16.0404 15.2371 16.3801 15.2371 16.7898C15.2371 17.1995 14.8974 17.5392 14.4878 17.5392Z" fill="#6B6B6B"/>
<path d="M5.19565 11.2543C5.00581 11.2543 4.81597 11.1744 4.66609 11.0345C4.45627 10.8247 4.38633 10.495 4.50623 10.2152L6.36468 5.77889C6.40465 5.68897 6.42463 5.62902 6.45461 5.57906C7.93337 2.1719 9.82179 1.3426 13.159 2.62152C13.3489 2.69147 13.4987 2.84134 13.5787 3.03119C13.6586 3.22103 13.6586 3.43085 13.5787 3.62069L10.6511 10.415C10.5312 10.6848 10.2614 10.8646 9.96168 10.8646H7.11405C6.54452 10.8646 6.00498 10.9746 5.48541 11.1944C5.39549 11.2343 5.29557 11.2543 5.19565 11.2543ZM10.6011 3.55075C9.36218 3.55075 8.60281 4.36008 7.81347 6.19854C7.80348 6.22852 7.7835 6.25849 7.7735 6.28847L6.46459 9.39588C6.68441 9.37589 6.89424 9.3659 7.11405 9.3659H9.46209L11.8701 3.77057C11.4005 3.62069 10.9808 3.55075 10.6011 3.55075Z" fill="#6B6B6B"/>
<path d="M18.2748 11.0645C18.205 11.0645 18.1249 11.0545 18.0551 11.0345C17.6854 10.9246 17.2757 10.8646 16.856 10.8646H9.96179C9.71199 10.8646 9.4722 10.7347 9.33231 10.5249C9.20243 10.3151 9.17245 10.0453 9.27236 9.81551L12.1699 3.09112C12.3198 2.73142 12.7494 2.49161 13.1291 2.61151C13.2491 2.65147 13.359 2.70144 13.4789 2.7514L15.8369 3.74057C17.2157 4.3101 18.135 4.9096 18.7345 5.629C18.8544 5.76888 18.9542 5.91875 19.0442 6.06863C19.1542 6.23849 19.254 6.44831 19.324 6.65814C19.354 6.72808 19.4039 6.85796 19.4339 6.99785C19.7136 7.93706 19.5738 9.10609 18.9743 10.6048C18.8544 10.8846 18.5746 11.0645 18.2748 11.0645ZM11.1008 9.36588H16.866C17.1858 9.36588 17.4955 9.39586 17.8052 9.44581C18.085 8.57653 18.145 7.9071 17.9851 7.36755C17.9651 7.27762 17.9452 7.23766 17.9351 7.19769C17.8752 7.03782 17.8352 6.94789 17.7852 6.86796C17.7154 6.75805 17.6653 6.66812 17.5854 6.57821C17.1558 6.05863 16.3965 5.57904 15.2674 5.11942L13.289 4.29011L11.1008 9.36588Z" fill="#6B6B6B"/>
<path d="M15.8866 23.534H8.09316C7.81339 23.534 7.55361 23.514 7.29383 23.4841C3.78675 23.2442 1.78842 21.246 1.54861 17.6989C1.51864 17.4791 1.49866 17.2093 1.49866 16.9395V14.9911C1.49866 12.743 2.83755 10.7147 4.90582 9.81547C5.60524 9.51572 6.35461 9.36584 7.12397 9.36584H16.8759C17.4454 9.36584 17.9949 9.44578 18.5045 9.60564C20.8526 10.3151 22.5011 12.5331 22.5011 14.9911V16.9395C22.5011 17.1594 22.4912 17.3691 22.4812 17.5689C22.2614 21.4758 19.9833 23.534 15.8866 23.534ZM7.11397 10.8646C6.54445 10.8646 6.0049 10.9745 5.48533 11.1943C3.9666 11.8538 2.98741 13.3425 2.98741 14.9911V16.9395C2.98741 17.1493 3.00739 17.3592 3.02739 17.559C3.21723 20.4066 4.61605 21.8054 7.42372 21.9953C7.67351 22.0253 7.87335 22.0453 8.08317 22.0453H15.8766C19.1739 22.0453 20.7926 20.5964 20.9524 17.4991C20.9624 17.3192 20.9724 17.1393 20.9724 16.9395V14.9911C20.9724 13.1827 19.7634 11.564 18.0448 11.0345C17.6752 10.9245 17.2655 10.8646 16.8459 10.8646H7.11397Z" fill="#6B6B6B"/>
<path d="M2.23827 15.7407C1.82861 15.7407 1.48889 15.4009 1.48889 14.9913V12.0637C1.48889 8.91634 3.71704 6.1986 6.79448 5.59911C7.06425 5.54915 7.34402 5.64906 7.52386 5.85889C7.69372 6.06871 7.74368 6.36846 7.63377 6.61825L5.88522 10.7948C5.80529 10.9746 5.66541 11.1145 5.49555 11.1944C3.97682 11.8539 2.99764 13.3427 2.99764 14.9913C2.98764 15.4009 2.65792 15.7407 2.23827 15.7407ZM5.59547 7.61742C4.31654 8.33682 3.38732 9.59578 3.09755 11.0646C3.53718 10.6149 4.04676 10.2352 4.62628 9.95548L5.59547 7.61742Z" fill="#6B6B6B"/>
<path d="M21.7418 15.7406C21.3321 15.7406 20.9924 15.4009 20.9924 14.9912C20.9924 13.1827 19.7835 11.5641 18.0649 11.0345C17.8651 10.9746 17.6952 10.8347 17.6053 10.6449C17.5154 10.455 17.5053 10.2352 17.5854 10.0453C18.0549 8.87633 18.1748 8.02703 17.985 7.36758C17.9651 7.27765 17.945 7.23769 17.9351 7.19772C17.8051 6.90797 17.8751 6.56825 18.1049 6.34843C18.3347 6.12862 18.6845 6.07866 18.9642 6.22853C21.1423 7.36758 22.4912 9.60571 22.4912 12.0637V14.9912C22.4912 15.4009 22.1515 15.7406 21.7418 15.7406ZM19.2339 9.88548C19.8635 10.1752 20.4229 10.5849 20.8926 11.0745C20.7027 10.0953 20.2331 9.20605 19.5437 8.50663C19.4937 8.92629 19.3938 9.3859 19.2339 9.88548Z" fill="#6B6B6B"/>
</svg>
